<svg xmlns="http://www.w3.org/2000/svg" viewBox="0 0 112 100"><title>Book Your Data</title><desc>Bookyourdata Contact List Logo</desc><g fill="none" fill-rule="evenodd"><path class="logo__bg" fill="#EB3D32" d="M0 0h112v100H0z"/><path fill="#FFF" d="M27.2 33.76V37h1.15c.113 0 .33-.013.65-.04.32-.027.557-.073.71-.14a7.1 7.1 0 0 0 .54-.27.977.977 0 0 0 .44-.46 1.67 1.67 0 0 0 .13-.69c0-.2-.02-.38-.06-.54a.889.889 0 0 0-.21-.4l-.27-.29c-.08-.087-.21-.153-.39-.2a5.401 5.401 0 0 1-.41-.12 1.983 1.983 0 0 0-.49-.07c-.233-.013-.387-.02-.46-.02H27.2zM29.32 40h-6.04V24.92h5.6c2.987 0 4.48 1.307 4.48 3.92 0 1.493-.553 2.52-1.66 3.08v.04c2.053.267 3.08 1.547 3.08 3.84 0 .76-.153 1.42-.46 1.98-.307.56-.723.997-1.25 1.31-.527.313-1.1.543-1.72.69-.62.147-1.297.22-2.03.22zM27.2 27.92v2.92h.44c.64 0 1.153-.1 1.54-.3.387-.2.58-.587.58-1.16 0-.333-.063-.603-.19-.81a1.036 1.036 0 0 0-.57-.44 3.538 3.538 0 0 0-.7-.17 6.773 6.773 0 0 0-.82-.04h-.28zm17.2-3.5c1.453 0 2.813.323 4.08.97s2.293 1.57 3.08 2.77c.787 1.2 1.18 2.54 1.18 4.02 0 2.44-.783 4.437-2.35 5.99-1.567 1.553-3.563 2.33-5.99 2.33s-4.423-.777-5.99-2.33c-1.567-1.553-2.35-3.55-2.35-5.99 0-1.48.393-2.82 1.18-4.02a7.95 7.95 0 0 1 3.08-2.77 8.843 8.843 0 0 1 4.08-.97zm0 3.8a4.2 4.2 0 0 0-3 1.2c-.84.8-1.26 1.727-1.26 2.78 0 1.28.413 2.35 1.24 3.21.827.86 1.833 1.29 3.02 1.29s2.193-.43 3.02-1.29c.827-.86 1.24-1.93 1.24-3.21 0-1.053-.42-1.98-1.26-2.78a4.2 4.2 0 0 0-3-1.2zm17.74-3.8c1.453 0 2.813.323 4.08.97s2.293 1.57 3.08 2.77c.787 1.2 1.18 2.54 1.18 4.02 0 2.44-.783 4.437-2.35 5.99-1.567 1.553-3.563 2.33-5.99 2.33s-4.423-.777-5.99-2.33c-1.567-1.553-2.35-3.55-2.35-5.99 0-1.48.393-2.82 1.18-4.02a7.95 7.95 0 0 1 3.08-2.77 8.843 8.843 0 0 1 4.08-.97zm0 3.8a4.2 4.2 0 0 0-3 1.2c-.84.8-1.26 1.727-1.26 2.78 0 1.28.413 2.35 1.24 3.21.827.86 1.833 1.29 3.02 1.29s2.193-.43 3.02-1.29c.827-.86 1.24-1.93 1.24-3.21 0-1.053-.42-1.98-1.26-2.78a4.2 4.2 0 0 0-3-1.2zm14.12 2.92L81 24.92h4.86l-6 7.14L86.4 40h-5.08l-5.06-6.54h-.04V40H72.3V24.92h3.92v6.22h.04zM27.18 50.76l-5.56-7.84h4.7l2.82 4.1 2.82-4.1h4.7l-5.56 7.84V58h-3.92v-7.24zm17.96-8.34c1.453 0 2.813.323 4.08.97s2.293 1.57 3.08 2.77c.787 1.2 1.18 2.54 1.18 4.02 0 2.44-.783 4.437-2.35 5.99-1.567 1.553-3.563 2.33-5.99 2.33s-4.423-.777-5.99-2.33c-1.567-1.553-2.35-3.55-2.35-5.99 0-1.48.393-2.82 1.18-4.02a7.95 7.95 0 0 1 3.08-2.77 8.843 8.843 0 0 1 4.08-.97zm0 3.8a4.2 4.2 0 0 0-3 1.2c-.84.8-1.26 1.727-1.26 2.78 0 1.28.413 2.35 1.24 3.21.827.86 1.833 1.29 3.02 1.29s2.193-.43 3.02-1.29c.827-.86 1.24-1.93 1.24-3.21 0-1.053-.42-1.98-1.26-2.78a4.2 4.2 0 0 0-3-1.2zm19.32-3.3h3.92v8.48c0 1.227-.097 2.257-.29 3.09-.193.833-.623 1.577-1.29 2.23-1.133 1.12-2.8 1.68-5 1.68s-3.867-.56-5-1.68c-.667-.653-1.097-1.397-1.29-2.23-.193-.833-.29-1.863-.29-3.09v-8.48h3.92v7.94c0 .48.01.88.03 1.2.02.32.08.68.18 1.08.1.4.24.72.42.96s.443.443.79.61c.347.167.76.25 1.24.25s.893-.083 1.24-.25c.347-.167.61-.37.79-.61.18-.24.32-.56.42-.96.1-.4.16-.76.18-1.08.02-.32.03-.72.03-1.2v-7.94zm14.2 8.9L83.4 58h-4.88l-3.7-5.8h-.04V58h-3.92V42.92h5.86c1.573 0 2.84.387 3.8 1.16.96.773 1.44 1.933 1.44 3.48 0 1.08-.29 2.013-.87 2.8-.58.787-1.39 1.273-2.43 1.46zm-3.88-5.9v3.76h.38c1.813 0 2.72-.627 2.72-1.88s-.907-1.88-2.72-1.88h-.38zM23.28 76V60.92h5.56c2.107 0 3.91.73 5.41 2.19s2.25 3.243 2.25 5.35c0 2.107-.75 3.89-2.25 5.35-1.5 1.46-3.303 2.19-5.41 2.19h-5.56zm3.92-11.76v8.44h.88c1.253 0 2.29-.353 3.11-1.06.82-.707 1.23-1.76 1.23-3.16 0-1.32-.393-2.353-1.18-3.1-.787-.747-1.827-1.12-3.12-1.12h-.92zm20.36 9.14h-5.4L41.12 76h-4.16l5.8-15.08h4.28L52.72 76h-4.18l-.98-2.62zm-1.06-3l-1.6-4.8h-.04l-1.62 4.8h3.26zm12.24-6.14V76h-3.92V64.24h-3.24v-3.32h10.4v3.32h-3.24zm12.7 9.14h-5.4L65 76h-4.16l5.8-15.08h4.28L76.6 76h-4.18l-.98-2.62zm-1.06-3l-1.6-4.8h-.04l-1.62 4.8h3.26z"/></g></svg>