<?xml version="1.0" encoding="UTF-8"?> <svg xmlns="http://www.w3.org/2000/svg" xmlns:xlink="http://www.w3.org/1999/xlink" width="120px" height="120px" viewBox="0 0 120 120"><!-- Generator: Sketch 53 (72520) - https://sketchapp.com --><title>Features - Blue Phone</title><desc>Created with Sketch.</desc><defs><filter x="-10.7%" y="-10.7%" width="121.4%" height="121.4%" id="filter-1"><feOffset dx="0" dy="2" in="SourceAlpha" result="shadowOffsetOuter1"></feOffset><feGaussianBlur stdDeviation="2" in="shadowOffsetOuter1" result="shadowBlurOuter1"></feGaussianBlur><feColorMatrix values="0 0 0 0 0 0 0 0 0 0 0 0 0 0 0 0 0 0 0.5 0" type="matrix" in="shadowBlurOuter1" result="shadowMatrixOuter1"></feColorMatrix><feMerge><feMergeNode in="shadowMatrixOuter1"></feMergeNode><feMergeNode in="SourceGraphic"></feMergeNode></feMerge></filter></defs><g id="Page-1" stroke="none" stroke-width="1" fill="none" fill-rule="evenodd"><g id="SI---Features-Main" transform="translate(-74.000000, -2767.000000)"><g id="Section-3---Data-Promise" transform="translate(78.000000, 2391.000000)"><g id="Features---Blue-Phone" filter="url(#filter-1)" transform="translate(0.000000, 378.000000)"><circle id="Oval" fill="#568CE8" fill-rule="nonzero" cx="55.8" cy="55.7" r="55.5"></circle><path d="M53.1,46.4 C55.1,45.3 55.8,42.7 54.7,40.7 L51.6,35.2 C50.5,33.2 47.9,32.5 45.9,33.6 L42.9,35.3 C40.3,36.8 39.1,39.9 40,42.7 C44,55 50.6,66.5 59,76.2 C61,78.4 64.2,79 66.8,77.5 L69.8,75.8 C71.8,74.7 72.5,72.1 71.4,70.1 L68.3,64.6 C67.2,62.6 64.6,61.9 62.6,63 L60.8,64 C57.2,58.9 53.8,53 51.3,47.3 L53.1,46.4 Z" id="Path" stroke="#FFFFFF" stroke-width="2" stroke-linecap="round" stroke-linejoin="round"></path><circle id="Oval" stroke="#FFFFFF" stroke-width="4" stroke-linecap="round" stroke-linejoin="round" cx="55.5" cy="56" r="42.7"></circle></g></g></g></g></svg> 