<?xml version="1.0" encoding="UTF-8"?> <svg xmlns="http://www.w3.org/2000/svg" xmlns:xlink="http://www.w3.org/1999/xlink" width="120px" height="120px" viewBox="0 0 120 120"><!-- Generator: Sketch 53 (72520) - https://sketchapp.com --><title>Features - Orange Research on Demand</title><desc>Created with Sketch.</desc><defs><filter x="-10.7%" y="-10.7%" width="121.4%" height="121.4%" id="filter-1"><feOffset dx="0" dy="2" in="SourceAlpha" result="shadowOffsetOuter1"></feOffset><feGaussianBlur stdDeviation="2" in="shadowOffsetOuter1" result="shadowBlurOuter1"></feGaussianBlur><feColorMatrix values="0 0 0 0 0 0 0 0 0 0 0 0 0 0 0 0 0 0 0.5 0" type="matrix" in="shadowBlurOuter1" result="shadowMatrixOuter1"></feColorMatrix><feMerge><feMergeNode in="shadowMatrixOuter1"></feMergeNode><feMergeNode in="SourceGraphic"></feMergeNode></feMerge></filter></defs><g id="Page-1" stroke="none" stroke-width="1" fill="none" fill-rule="evenodd"><g id="SI---Features-Main" transform="translate(-653.000000, -2767.000000)"><g id="Section-3---Data-Promise" transform="translate(78.000000, 2391.000000)"><g id="Features---Orange-Research-on-Demand" filter="url(#filter-1)" transform="translate(579.000000, 378.000000)"><circle id="Oval" fill="#FA7564" fill-rule="nonzero" cx="56" cy="55.9" r="55.5"></circle><g id="Group" transform="translate(10.000000, 10.000000)"><path d="M38.1,57.8 C38.1,57.8 32.2,55.8 32.2,45.9 C28.9,45.9 28.9,38 32.2,38 C32.2,36.7 26.3,22.2 36.2,24.1 C38.2,16.2 60,16.2 61.9,24.1 C63.3,29.6 59.9,37 59.9,38 C63.2,38 63.2,45.9 59.9,45.9 C59.9,55.8 54,57.8 54,57.8 L54,67.7 C63.8,71.4 73.5,74.4 78.5,77.9 C86.6,69.7 91.6,58.4 91.6,45.9 C91.6,20.7 71.2,0.4 46.1,0.4 C21,0.4 0.5,20.8 0.5,45.9 C0.5,58.4 5.5,69.7 13.7,77.9 C19,74.3 29.4,71 38.2,67.7 L38.2,57.8 L38.1,57.8 Z" id="Path" stroke="#FFFFFF" stroke-width="3" stroke-linejoin="round"></path><path d="M78.4,77.9 C70.1,86.3 58.7,91.5 46,91.5 C33.3,91.5 21.9,86.3 13.6,78 C13.6,78 24,72 38,68 L38,58 C38,58 32,56 32,46 C32,46 26,43 32,38 C32,38 26,22 36,24 C36,24 40.3,14.7 57.6,19.9 C57.6,19.9 66,21 60,38 C60,38 65,42 60,46 C60,46 60,55 54,58 L54,68" id="Path" stroke="#FFFFFF" stroke-width="3" stroke-linecap="round"></path><path d="M78,76.8 C69.8,85.1 58.4,90.3 45.8,90.3 C33.2,90.3 21.8,85.2 13.6,76.9 C13.6,76.9 23.9,71 37.8,67 L37.8,57 C37.8,57 31.8,55 31.8,45.1 C31.8,45.1 25.8,42.1 31.8,37.2 C31.8,37.2 25.8,21.3 35.8,23.3 C35.8,23.3 40,14.1 57.3,19.2 C57.3,19.2 65.6,20.3 59.7,37.2 C59.7,37.2 64.7,41.2 59.7,45.1 C59.7,45.1 59.7,54 53.7,57 L53.7,66.9 C53.7,66.9 75.4,72.7 78,76.8 Z" id="Path" fill="#FFFFFF" fill-rule="nonzero"></path></g></g></g></g></g></svg> 