<svg xmlns="http://www.w3.org/2000/svg" viewBox="0 0 237.29 45.56"><defs><style>.cls-1{fill:#fff;}</style></defs><title>logo-white</title><g id="Layer_2" data-name="Layer 2"><g id="Layer_2-2" data-name="Layer 2"><path class="cls-1" d="M22.78,0a22.78,22.78,0,0,0-16,39L17,25l2.32,3.84,8.09-11.61h0l2-2.81L25.4,16a1.35,1.35,0,0,1-1.52-.91,1.11,1.11,0,0,1,.52-1.55l9.36-3.79-.22,9.84a1.43,1.43,0,0,1-1.1,1.3c-1.05.23-1.35-1-1.35-1l.18-4.28L23,27.45l0,0-3.6,5.13L17,28.69,8.49,40.51A22.78,22.78,0,1,0,22.78,0Z"/><path class="cls-1" d="M59.61,30.78a11.54,11.54,0,0,0,7.46,3.15c2.73,0,5.05-1.53,5.05-4.31,0-6.34-14.17-5-14.17-14,0-4.56,3.94-8.16,9.45-8.16a12,12,0,0,1,8.29,2.94l-1.86,3.4A10.31,10.31,0,0,0,67.4,11.3c-3.11,0-5.3,1.95-5.3,4.27,0,6,14.17,4.43,14.17,13.92,0,4.52-3.48,8.24-9.28,8.24a13.68,13.68,0,0,1-9.69-3.85Z"/><path class="cls-1" d="M92.25,24.15h.91v-.37c0-3.44-1.95-4.6-4.6-4.6a10.63,10.63,0,0,0-5.84,2l-1.66-2.94a13.15,13.15,0,0,1,7.83-2.49c5.3,0,8.29,2.9,8.29,8.2V37.24H93.46v-2a15.72,15.72,0,0,1,.08-1.66h-.08a7.25,7.25,0,0,1-6.71,4.14c-3.6,0-7.13-2.2-7.13-6.38C79.62,24.44,88.73,24.15,92.25,24.15ZM87.61,34.51c3.4,0,5.59-3.56,5.59-6.67v-.66h-1c-3,0-8.49.21-8.49,4C83.68,32.85,85,34.51,87.61,34.51Z"/><path class="cls-1" d="M102.94,8h4V30.82c0,2.53,1,3,2.24,3a6.43,6.43,0,0,0,.7,0v3.56a11.29,11.29,0,0,1-1.33.08c-2.28,0-5.63-.62-5.63-5.88Z"/><path class="cls-1" d="M123.2,15.78c5.92,0,9.07,4.39,9.07,9.82,0,.54-.12,1.74-.12,1.74H116.86a6.85,6.85,0,0,0,7.21,6.92,10,10,0,0,0,6.21-2.44l1.66,2.94a12.48,12.48,0,0,1-8.12,3,10.68,10.68,0,0,1-11.1-11C112.72,20.09,117.24,15.78,123.2,15.78Zm5,8.53c-.12-3.6-2.36-5.34-5.05-5.34A6,6,0,0,0,117,24.31Z"/><path class="cls-1" d="M137.41,31.81a9,9,0,0,0,6,2.44c1.74,0,3.48-.91,3.48-2.61,0-3.85-10.77-3.07-10.77-9.9,0-3.81,3.4-6,7.58-6,4.6,0,6.75,2.32,6.75,2.32l-1.62,3a7.67,7.67,0,0,0-5.18-1.86c-1.74,0-3.44.75-3.44,2.57,0,3.77,10.77,2.94,10.77,9.82,0,3.48-3,6.09-7.58,6.09a11.27,11.27,0,0,1-8-3.07Z"/><path class="cls-1" d="M156.55,8h4.1V37.24h-4.1Z"/><path class="cls-1" d="M167.78,16.28h3.89v2.78a14.7,14.7,0,0,1-.08,1.53h.08a8.53,8.53,0,0,1,7.87-4.81c4.93,0,7.21,2.69,7.21,8V37.24h-4V24.73c0-2.94-.62-5.26-4-5.26a6.87,6.87,0,0,0-6.63,5.14,9.92,9.92,0,0,0-.33,2.82v9.82h-4Z"/><path class="cls-1" d="M193.63,19.8h-2.73V16.57h2.86v-6h3.89v6h5.05V19.8h-5.05v9.32c0,4.18,2.94,4.72,4.47,4.72a4.84,4.84,0,0,0,1-.08v3.56a11,11,0,0,1-1.41.08c-2.69,0-8-.83-8-7.83Z"/><path class="cls-1" d="M216.62,15.78c5.92,0,9.07,4.39,9.07,9.82,0,.54-.12,1.74-.12,1.74H210.28a6.85,6.85,0,0,0,7.21,6.92,10,10,0,0,0,6.21-2.44l1.66,2.94a12.48,12.48,0,0,1-8.12,3,10.68,10.68,0,0,1-11.1-11C206.14,20.09,210.65,15.78,216.62,15.78Zm5,8.53c-.12-3.6-2.36-5.34-5.05-5.34a6,6,0,0,0-6.13,5.34Z"/><path class="cls-1" d="M230.33,8h4V30.82c0,2.53,1,3,2.24,3a6.43,6.43,0,0,0,.7,0v3.56a11.3,11.3,0,0,1-1.33.08c-2.28,0-5.63-.62-5.63-5.88Z"/></g></g></svg>