<?xml version="1.0" encoding="UTF-8"?> <!-- Generator: Adobe Illustrator 21.1.0, SVG Export Plug-In . SVG Version: 6.00 Build 0) --> <svg xmlns="http://www.w3.org/2000/svg" xmlns:xlink="http://www.w3.org/1999/xlink" id="Layer_1" x="0px" y="0px" width="127" height="127" viewBox="0 0 170.1 170.1" style="enable-background:new 0 0 170.1 170.1;" xml:space="preserve"> <style type="text/css"> .st0{fill:none;stroke:#65C761;stroke-width:4;stroke-linecap:round;stroke-linejoin:round;} .st1{fill:none;stroke:#65C761;stroke-width:7;stroke-linecap:round;stroke-linejoin:round;} </style> <title>Artboard 1</title> <path class="st0" d="M53.2,72.5c5.3,10.6,10.1,30.5,15.5,42.7"></path> <path class="st0" d="M144.8,65.7c1.6,4.3-0.7,9.1-5,10.6c0,0,0,0,0,0l-2.6,1l-7.6-20.8l2.6-1c4.3-1.6,9.1,0.7,10.6,5c0,0,0,0,0,0 L144.8,65.7z"></path> <path class="st1" d="M37.6,78.2l-5.2,1.9c-8.6,3.1-13,12.7-9.9,21.3c0,0,0,0,0,0l3.8,10.4c3.1,8.6,12.6,13.1,21.3,9.9l5.2-1.9 c46.4-16.9,69.3-13.4,95.9-11.3l-30.3-83.2C99.3,44,84,61.3,37.6,78.2z"></path> <path class="st0" d="M63.4,100.8L53.2,72.5"></path> <path class="st1" d="M103.3,144.8c-7.9-0.9-15.4-4.2-21.5-9.4c-6.6-5.7-10.2-12.8-13.1-20.9"></path> </svg> 