<?xml version="1.0" encoding="UTF-8"?> <svg xmlns="http://www.w3.org/2000/svg" id="Layer_1" data-name="Layer 1" width="127" height="127" viewBox="0 0 170.07 170.07"><defs><style>.cls-1,.cls-2{fill:none;stroke:#65c761;stroke-linecap:round;stroke-linejoin:round;}.cls-1{stroke-width:7px;}.cls-2{stroke-width:4px;}</style></defs><title>Artboard 1</title><path class="cls-1" d="M153,85A67.94,67.94,0,1,1,85,17.09,67.93,67.93,0,0,1,153,85Z"></path><line class="cls-2" x1="85.04" y1="2" x2="85.04" y2="37.77"></line><line class="cls-2" x1="2" y1="85.04" x2="37.78" y2="85.04"></line><line class="cls-2" x1="85.04" y1="168.07" x2="85.04" y2="132.29"></line><line class="cls-2" x1="168.07" y1="85.04" x2="132.3" y2="85.04"></line><path class="cls-2" d="M100,70.22A14.92,14.92,0,1,1,85,55.31,14.92,14.92,0,0,1,100,70.22Z"></path><path class="cls-2" d="M115.23,115.34H54.84a30.2,30.2,0,1,1,60.39,0Z"></path></svg> 