<svg xmlns="http://www.w3.org/2000/svg" viewBox="0 0 74 101"><defs><filter id="a" width="200%" height="200%" x="-50%" y="-50%" filterUnits="objectBoundingBox"><feOffset dx="1" dy="1" in="SourceAlpha" result="shadowOffsetInner1"/><feGaussianBlur stdDeviation="10" in="shadowOffsetInner1" result="shadowBlurInner1"/><feComposite in="shadowBlurInner1" in2="SourceAlpha" operator="arithmetic" k2="-1" k3="1" result="shadowInnerInner1"/><feColorMatrix values="0 0 0 0 0 0 0 0 0 0 0 0 0 0 0 0 0 0 0.0940585371 0" in="shadowInnerInner1" result="shadowMatrixInner1"/><feMerge><feMergeNode in="SourceGraphic"/><feMergeNode in="shadowMatrixInner1"/></feMerge></filter><filter id="b" width="200%" height="200%" x="-50%" y="-50%" filterUnits="objectBoundingBox"><feOffset dx="1" in="SourceAlpha" result="shadowOffsetInner1"/><feGaussianBlur stdDeviation="1.5" in="shadowOffsetInner1" result="shadowBlurInner1"/><feComposite in="shadowBlurInner1" in2="SourceAlpha" operator="arithmetic" k2="-1" k3="1" result="shadowInnerInner1"/><feColorMatrix values="0 0 0 0 0 0 0 0 0 0 0 0 0 0 0 0 0 0 0.136163949 0" in="shadowInnerInner1" result="shadowMatrixInner1"/><feMerge><feMergeNode in="SourceGraphic"/><feMergeNode in="shadowMatrixInner1"/></feMerge></filter><filter id="c" width="200%" height="200%" x="-50%" y="-50%" filterUnits="objectBoundingBox"><feOffset dx="1" in="SourceAlpha" result="shadowOffsetInner1"/><feGaussianBlur stdDeviation="1.5" in="shadowOffsetInner1" result="shadowBlurInner1"/><feComposite in="shadowBlurInner1" in2="SourceAlpha" operator="arithmetic" k2="-1" k3="1" result="shadowInnerInner1"/><feColorMatrix values="0 0 0 0 0 0 0 0 0 0 0 0 0 0 0 0 0 0 0.136163949 0" in="shadowInnerInner1" result="shadowMatrixInner1"/><feMerge><feMergeNode in="SourceGraphic"/><feMergeNode in="shadowMatrixInner1"/></feMerge></filter></defs><g fill="none" transform="translate(-.5)"><rect width="74" height="100.309" x=".5" y=".435" fill="#F54632" filter="url(#a)" rx="1"/><path fill="#000" d="M5.175.435H8.11v100.31H5.175z" opacity=".092" filter="url(#b)"/><path fill="#000" d="M20.98 58.21l8.735-21.344h2.266l8.74 21.344h-2.11l-2.11-5.25H25.2l-2.11 5.25h-2.108zm4.83-6.906h10.077L30.87 38.82l-5.06 12.484zm17.155 2.14c0-1.603.536-2.858 1.61-3.765 1.072-.91 2.338-1.36 3.796-1.36 2.18 0 3.93.73 5.25 2.2v-3.13c0-1.106-.39-1.976-1.17-2.61-.78-.636-1.77-.954-2.97-.954-1.91 0-3.53.76-4.86 2.28l-.92-1.154c1.61-1.73 3.59-2.594 5.96-2.594 1.668 0 3.02.416 4.064 1.25 1.04.832 1.563 2.072 1.563 3.72v10.88H53.63V56.38c-1.345 1.47-3.095 2.208-5.25 2.22a5.648 5.648 0 0 1-3.774-1.392c-1.09-.92-1.633-2.18-1.633-3.76zm1.75.024c0 1.11.39 2.023 1.172 2.742.78.72 1.802 1.078 3.063 1.078 2.03 0 3.59-.708 4.672-2.125v-3.39c-1.083-1.428-2.64-2.142-4.672-2.142-1.26 0-2.28.37-3.063 1.09-.78.73-1.172 1.64-1.172 2.75z" opacity=".18" filter="url(#c)"/></g></svg>