<svg xmlns="http://www.w3.org/2000/svg" viewBox="0 0 75 101"><defs><filter id="a" width="200%" height="200%" x="-50%" y="-50%" filterUnits="objectBoundingBox"><feOffset dx="1" dy="1" in="SourceAlpha" result="shadowOffsetInner1"/><feGaussianBlur stdDeviation="10" in="shadowOffsetInner1" result="shadowBlurInner1"/><feComposite in="shadowBlurInner1" in2="SourceAlpha" operator="arithmetic" k2="-1" k3="1" result="shadowInnerInner1"/><feColorMatrix values="0 0 0 0 0 0 0 0 0 0 0 0 0 0 0 0 0 0 0.0940585371 0" in="shadowInnerInner1" result="shadowMatrixInner1"/><feMerge><feMergeNode in="SourceGraphic"/><feMergeNode in="shadowMatrixInner1"/></feMerge></filter></defs><g fill="none" fill-rule="evenodd"><path fill="#F8F8F8" d="M.39 1.684c0-.548.44-.993 1-.993h65.283l7.716 8.057v91.25c0 .556-.457 1.006-.99 1.006H1.38a.992.992 0 0 1-.99-.992V1.685z" filter="url(#a)" transform="translate(.5)"/><path fill="#000" d="M14.89 20.69h47v3h-47zm0 7h47v3h-47zm0 7h47v3h-47zm0 7h47v3h-47zm0 7h47v3h-47zm0 7h47v3h-47zm0 7h47v3h-47zm0 7h31v3h-31z" opacity=".082"/><path fill="#D1D1D1" d="M67.323.69l-.434 8.054 8.11-.23L67.32.69z"/></g></svg>